<svg width="50" height="50" viewBox="0 0 50 50" fill="none" xmlns="http://www.w3.org/2000/svg">
<g clip-path="url(#clip0)">
<path d="M41.9646 26.7629C41.9646 26.2699 41.5648 25.8701 41.0717 25.8701H34.822C34.3289 25.8701 33.9291 26.2699 33.9291 26.7629V27.6558H41.9646V26.7629Z" fill="black"/>
<path d="M5.24455 28.1371C5.21621 28.0843 5.18264 28.0342 5.14428 27.988C5.11507 27.9513 5.08324 27.9169 5.0488 27.8851C5.00041 27.8441 4.94809 27.8083 4.89185 27.7791C4.85698 27.7569 4.82079 27.7373 4.78373 27.7198C4.68259 27.6789 4.57491 27.6571 4.46592 27.6558C3.97284 27.6558 3.57306 28.0555 3.57306 28.5486C3.57306 29.0417 3.97284 29.4415 4.46592 29.4415C4.91322 29.4376 5.28727 29.1001 5.33741 28.6559L5.33 28.4082C5.32477 28.3581 5.31474 28.3088 5.30079 28.26C5.2851 28.2177 5.26635 28.1767 5.24455 28.1371Z" fill="black"/>
<path d="M5.31771 7.94125L21.685 16.8089C23.5003 17.7928 24.8653 19.4399 25.4965 21.406H29.465C29.9581 21.406 30.3578 21.8058 30.3578 22.2988V27.6558H32.1435V26.763C32.147 25.7245 32.7503 24.7816 33.6915 24.3434L32.8436 21.1828C31.932 17.7793 29.5173 14.9775 26.2856 13.5733L6.75068 5.01908C5.95333 4.67904 5.02955 5.023 4.64853 5.80204C4.26795 6.58065 4.56396 7.52099 5.32207 7.94125H5.31771Z" fill="black"/>
<path d="M3.0756 26.2637C3.14709 26.2201 3.22382 26.1861 3.2988 26.1486C3.35766 26.1198 3.41389 26.0897 3.47754 26.0645C3.5813 26.0261 3.6868 25.993 3.79448 25.9664C3.84897 25.952 3.90085 25.9324 3.95709 25.9219C4.12449 25.8883 4.29495 25.8709 4.46584 25.87C4.63325 25.8705 4.80065 25.8875 4.965 25.921C5.03345 25.9332 5.09884 25.9568 5.16598 25.9747C5.19867 25.9834 5.23181 25.9903 5.26494 26.0012L4.82288 9.70194L4.46584 9.51186C3.33237 8.89761 2.64182 7.697 2.6815 6.40833C2.72117 5.11966 3.48408 3.96396 4.6533 3.42076L4.59183 1.26281C4.5648 0.919281 4.41091 0.598421 4.1598 0.363008C3.83284 0.0722292 3.39079 -0.0528885 2.96007 0.0238387C2.52935 0.10013 2.15748 0.369983 1.95084 0.755799L0.5776 3.50185C0.198323 4.25953 0.00127376 5.09525 0.00170971 5.9423C0.00214565 6.67775 0.0618709 7.41189 0.180449 8.13775L3.0756 26.2637Z" fill="black"/>
<path d="M22.3224 39.2625V41.0481H38.3933V39.2625H22.3224Z" fill="black"/>
<path d="M30.3579 29.4417V34.7986C30.3579 35.2917 29.9581 35.6914 29.465 35.6914H16.0726V37.4771H44.6431V31.597L42.4877 29.4417H30.3579ZM40.1789 31.2273H41.9646V33.9058H40.1789V31.2273ZM36.6076 31.2273H38.3933V33.9058H36.6076V31.2273Z" fill="#012E67"/>
<path d="M46.4287 42.834C44.4565 42.834 42.8574 44.433 42.8574 46.4053C42.8574 48.3775 44.4565 49.9766 46.4287 49.9766C48.401 49.9766 50 48.3775 50 46.4053C50 44.433 48.401 42.834 46.4287 42.834ZM46.4287 48.1909C45.4426 48.1909 44.6431 47.3914 44.6431 46.4053C44.6431 45.4192 45.4426 44.6196 46.4287 44.6196C47.4148 44.6196 48.2144 45.4192 48.2144 46.4053C48.2144 47.3914 47.4148 48.1909 46.4287 48.1909Z" fill="black"/>
<path d="M22.3224 33.9055H28.5722V27.6558H27.1563L22.3224 32.4896V33.9055Z" fill="black"/>
<path d="M28.5722 23.1917H19.2289L16.0726 27.9234V33.9056H20.5368V32.1199C20.5368 31.8832 20.6309 31.6561 20.7983 31.4886L26.1553 26.1317C26.3227 25.9643 26.5498 25.8701 26.7865 25.8701H28.5722V23.1917Z" fill="black"/>
<path d="M5.35848 38.3697V31.0627C4.32354 31.449 3.15781 31.1403 2.44982 30.2924C2.32209 30.2615 2.20308 30.2031 2.10063 30.1211C0.651528 31.3208 -0.125772 33.1492 0.0163482 35.0251C0.158468 36.901 1.2017 38.5916 2.81471 39.5599L3.81827 40.1554H6.36814L5.50845 38.8654C5.4108 38.7185 5.35892 38.5458 5.35848 38.3697Z" fill="black"/>
<path d="M39.2861 42.834H18.2689C20.1021 44.862 20.1021 47.9485 18.2689 49.9766H42.4467C40.6136 47.9485 40.6136 44.862 42.4467 42.834H39.2861ZM23.2152 47.2981H21.4296V45.5125H23.2152V47.2981ZM28.5722 47.2981H26.7865V45.5125H28.5722V47.2981ZM33.9291 47.2981H32.1435V45.5125H33.9291V47.2981ZM39.2861 47.2981H37.5004V45.5125H39.2861V47.2981Z" fill="black"/>
<path d="M14.2869 42.834C12.3147 42.834 10.7156 44.433 10.7156 46.4053C10.7156 48.3775 12.3147 49.9766 14.2869 49.9766C16.2592 49.9766 17.8582 48.3775 17.8582 46.4053C17.8582 44.433 16.2592 42.834 14.2869 42.834ZM14.2869 48.1909C13.3008 48.1909 12.5013 47.3914 12.5013 46.4053C12.5013 45.4192 13.3008 44.6196 14.2869 44.6196C15.2731 44.6196 16.0726 45.4192 16.0726 46.4053C16.0726 47.3914 15.2731 48.1909 14.2869 48.1909Z" fill="black"/>
</g>
<defs>
<clipPath id="clip0">
<rect width="50" height="50" fill="white"/>
</clipPath>
</defs>
</svg>
