<svg width="50" height="50" viewBox="0 0 50 50" fill="none" xmlns="http://www.w3.org/2000/svg">
<g clip-path="url(#clip0)">
<path d="M49.2179 31.2498C45.9835 31.25 45.9108 32.8123 43.1641 32.8123C40.428 32.8123 40.3372 31.2498 37.1084 31.2498C33.8812 31.2498 33.7952 32.8123 31.0537 32.8123C28.3212 32.8123 28.226 31.2498 24.999 31.2498C21.7686 31.2498 21.6896 32.8123 18.9453 32.8123C16.2108 32.8123 16.1153 31.2498 12.8906 31.2498C9.65342 31.2498 9.58545 32.8123 6.83594 32.8123C4.09482 32.8123 4.01289 31.25 0.782129 31.2498C0.350684 31.2498 0 31.5996 0 32.031V37.207C0 37.3686 0.131445 37.4996 0.293066 37.4999C1.90557 37.5032 2.59238 37.5551 4.16699 38.3679C4.88867 38.741 5.51172 39.0623 6.83594 39.0623C9.58916 39.0623 9.65117 37.4998 12.8906 37.4998C16.1179 37.4998 16.2038 39.0623 18.9453 39.0623C21.6436 39.0623 21.8043 37.4998 24.999 37.4998C28.2349 37.4998 28.3058 39.0623 31.0537 39.0623C33.795 39.0623 33.8768 37.4998 37.1084 37.4998C40.3073 37.4998 40.451 39.0623 43.1641 39.0623C44.4873 39.0623 45.1113 38.741 45.833 38.3679C47.424 37.5458 48.1409 37.5022 49.7069 37.4999C49.8687 37.4997 50 37.3686 50 37.2069V32.031C50 31.5995 49.6493 31.2498 49.2179 31.2498Z" fill="#012E67"/>
<path d="M46.5498 39.7566C45.7607 40.1638 44.8672 40.6248 43.1641 40.6248C39.9651 40.6248 39.8215 39.0623 37.1084 39.0623C34.3759 39.0623 34.2807 40.6248 31.0537 40.6248C27.8286 40.6248 27.7388 39.0623 24.999 39.0623C22.2646 39.0623 22.1724 40.6248 18.9453 40.6248C15.7162 40.6248 15.6337 39.0623 12.8906 39.0623C10.1493 39.0623 10.0676 40.6248 6.83594 40.6248C5.13281 40.6248 4.23828 40.1638 3.4502 39.7566C2.13076 39.0747 1.63984 39.061 0.293066 39.0621C0.131348 39.0622 0 39.1933 0 39.355V44.531C0 44.9603 0.346582 45.3125 0.775977 45.3123C3.52412 45.3102 3.60039 46.8748 6.83594 46.8748C10.0632 46.8748 10.1491 45.3123 12.8906 45.3123C15.6441 45.3123 15.7058 46.8748 18.9453 46.8748C22.1424 46.8748 22.2875 45.3123 24.999 45.3123C27.7403 45.3123 27.8221 46.8748 31.0537 46.8748C34.2894 46.8748 34.3606 45.3123 37.1084 45.3123C39.8444 45.3123 39.9353 46.8748 43.1641 46.8748C46.3934 46.8748 46.4773 45.3103 49.224 45.3123C49.6534 45.3125 50 44.9604 50 44.531V39.355C50 39.1933 49.8687 39.0622 49.7069 39.0621C48.3604 39.061 47.8693 39.0746 46.5498 39.7566Z" fill="#012E67"/>
<path d="M21.0938 13.281C22.3882 13.281 23.4375 12.2317 23.4375 10.9373C23.4375 9.64284 22.3882 8.59351 21.0938 8.59351C19.7993 8.59351 18.75 9.64284 18.75 10.9373C18.75 12.2317 19.7993 13.281 21.0938 13.281Z" fill="black"/>
<path d="M13.7218 11.6401C14.6134 12.0721 14.9134 13.1953 14.358 14.0142C13.9916 14.5545 14.4129 15.2797 15.061 15.232C16.049 15.1601 16.8705 15.9828 16.799 16.9699C16.7519 17.6191 17.477 18.0392 18.0167 17.6729C18.8366 17.1168 19.9592 17.4184 20.3908 18.3091C20.6746 18.8949 21.5125 18.896 21.7968 18.3091C22.2288 17.4177 23.3518 17.1173 24.171 17.6729C24.7091 18.0377 25.4357 17.6213 25.3887 16.9699C25.3173 15.9854 26.1352 15.1604 27.1266 15.232C27.7787 15.2775 28.1948 14.5526 27.8297 14.0142C27.2736 13.1944 27.5752 12.0716 28.4659 11.6401C29.0517 11.3562 29.0527 10.5183 28.4659 10.234C27.5744 9.8021 27.2741 8.67896 27.8297 7.85991C28.1946 7.32183 27.7783 6.59565 27.1266 6.64214C26.1384 6.71401 25.3172 5.89126 25.3887 4.90425C25.4355 4.25591 24.7118 3.83423 24.171 4.20122C23.3511 4.75728 22.2284 4.45571 21.7968 3.56499C21.5131 2.97925 20.6752 2.97808 20.3908 3.56499C19.9588 4.45649 18.8358 4.75669 18.0167 4.20122C17.4773 3.83521 16.7518 4.25454 16.799 4.90425C16.8703 5.8896 16.052 6.71255 15.061 6.64214C14.4093 6.59702 13.9925 7.32114 14.358 7.85991C14.9142 8.67993 14.6124 9.80249 13.7218 10.234C13.1367 10.5175 13.134 11.3553 13.7218 11.6401ZM21.0938 7.03081C23.2477 7.03081 25.0001 8.78315 25.0001 10.9371C25.0001 13.091 23.2477 14.8433 21.0938 14.8433C18.9399 14.8433 17.1876 13.091 17.1876 10.9371C17.1876 8.78315 18.9399 7.03081 21.0938 7.03081Z" fill="black"/>
<path d="M34.6647 21.5565C36.3222 22.5193 38.3973 22.5032 40.042 21.5002C42.8848 22.7727 46.0938 20.6785 46.0938 17.5777C46.0938 14.9424 43.7253 12.9096 41.1052 13.337C38.5026 10.6233 33.9312 11.4348 32.452 14.9248C30.8657 15.2711 29.6875 16.69 29.6875 18.3589C29.6875 20.9213 32.3497 22.6167 34.6647 21.5565Z" fill="black"/>
<path d="M3.90625 22.656C4.92471 22.656 5.79307 23.3092 6.11563 24.2185H5.46875C5.0373 24.2185 4.6875 24.5683 4.6875 24.9998C4.6875 25.4312 5.0373 25.781 5.46875 25.781H8.59375C9.0252 25.781 9.375 25.4312 9.375 24.9998C9.375 24.5683 9.0252 24.2185 8.59375 24.2185H7.94688C8.26934 23.3092 9.1377 22.656 10.1562 22.656C10.5877 22.656 10.9375 22.3062 10.9375 21.8748C10.9375 21.4433 10.5877 21.0935 10.1562 21.0935C8.87979 21.0935 7.74453 21.709 7.03125 22.6587C6.31797 21.709 5.18271 21.0935 3.90625 21.0935C3.4748 21.0935 3.125 21.4433 3.125 21.8748C3.125 22.3062 3.4748 22.656 3.90625 22.656Z" fill="black"/>
<path d="M13.2812 24.2185C14.2997 24.2185 15.1681 24.8717 15.4906 25.781H14.8438C14.4123 25.781 14.0625 26.1308 14.0625 26.5623C14.0625 26.9937 14.4123 27.3435 14.8438 27.3435H17.9688C18.4002 27.3435 18.75 26.9937 18.75 26.5623C18.75 26.1308 18.4002 25.781 17.9688 25.781H17.3219C17.6443 24.8717 18.5127 24.2185 19.5312 24.2185C19.9627 24.2185 20.3125 23.8687 20.3125 23.4373C20.3125 23.0058 19.9627 22.656 19.5312 22.656C18.2548 22.656 17.1195 23.2715 16.4062 24.2212C15.693 23.2715 14.5577 22.656 13.2812 22.656C12.8498 22.656 12.5 23.0058 12.5 23.4373C12.5 23.8687 12.8498 24.2185 13.2812 24.2185Z" fill="black"/>
</g>
<defs>
<clipPath id="clip0">
<rect width="50" height="50" fill="white"/>
</clipPath>
</defs>
</svg>
