<svg width="50" height="50" viewBox="0 0 50 50" fill="none" xmlns="http://www.w3.org/2000/svg">
<path d="M34.8332 39.7322C33.9892 39.74 33.1905 39.3499 32.6787 38.6785C32.5069 38.699 32.3334 38.702 32.1608 38.6885V48.6608L34.3035 47.0538C34.6209 46.8153 35.0578 46.8153 35.3751 47.0538L37.5179 48.6608V38.6885C37.3396 38.7033 37.16 38.6998 36.9821 38.6785C36.4712 39.3481 35.6751 39.7383 34.8332 39.7322Z" fill="#012E67"/>
<path d="M0 41.5179C0 42.9971 1.19934 44.1964 2.67857 44.1964H30.3785V40.625H0L0 41.5179Z" fill="#012E67"/>
<path d="M38.6698 32.6072C38.4317 32.5226 38.2403 32.3408 38.144 32.1076C38.0472 31.8739 38.0537 31.6106 38.1627 31.3821C38.3314 31.0281 38.2599 30.6061 37.9835 30.328C37.7067 30.0498 37.2851 29.9757 36.9302 30.1427C36.7022 30.2517 36.4385 30.2586 36.2048 30.1623C35.9707 30.0655 35.7893 29.8741 35.7043 29.6356C35.574 29.2659 35.2243 29.0183 34.8324 29.0183C34.44 29.0183 34.0904 29.2659 33.96 29.6356C33.8754 29.8741 33.6936 30.0655 33.46 30.1623C33.2258 30.2586 32.9621 30.2517 32.7341 30.1427C32.3788 29.9753 31.9568 30.0498 31.6804 30.328C31.4035 30.6065 31.332 31.029 31.502 31.383C31.6102 31.611 31.6171 31.8743 31.5204 32.1076C31.424 32.3408 31.2335 32.5222 30.9954 32.6072C30.6253 32.7388 30.3777 33.0894 30.3777 33.4822C30.3777 33.875 30.6253 34.2255 30.9954 34.3571C31.2335 34.4422 31.4244 34.6235 31.5208 34.8572C31.6176 35.0904 31.6106 35.3542 31.502 35.5822C31.3329 35.9362 31.4044 36.3582 31.6812 36.6364C31.9576 36.9145 32.3792 36.9886 32.7341 36.8217C32.9621 36.7127 33.2258 36.7057 33.46 36.802C33.6936 36.8988 33.8754 37.0902 33.96 37.3287C34.0904 37.6984 34.44 37.946 34.8324 37.946C35.2243 37.946 35.574 37.6984 35.7043 37.3287C35.7893 37.0902 35.9707 36.8988 36.2048 36.802C36.4385 36.7057 36.7022 36.7127 36.9302 36.8217C37.2851 36.9886 37.7067 36.9145 37.9835 36.6364C38.2599 36.3582 38.3314 35.9362 38.1627 35.5822C38.0537 35.3538 38.0472 35.0904 38.144 34.8568C38.2403 34.6235 38.4317 34.4417 38.6698 34.3571C39.039 34.2246 39.2858 33.8745 39.2858 33.4822C39.2858 33.0898 39.039 32.7397 38.6698 32.6072Z" fill="#012E67"/>
<path d="M7.14282 4.01793V38.8394H30.3785V37.8475C29.8087 37.2603 29.5379 36.4455 29.643 35.6341C28.979 35.1175 28.591 34.3232 28.591 33.4822C28.591 32.6412 28.979 31.8469 29.643 31.3303C29.5375 30.4967 29.823 29.661 30.4164 29.0659C31.0097 28.4708 31.8446 28.1831 32.6786 28.2859C33.1939 27.6211 33.9874 27.2322 34.8284 27.2322C35.6693 27.2322 36.4632 27.6211 36.9785 28.2859C37.8126 28.1826 38.6474 28.4704 39.2412 29.0654C39.8346 29.661 40.1197 30.4967 40.0142 31.3303C40.6782 31.8469 41.0662 32.6412 41.0662 33.4822C41.0662 34.3232 40.6782 35.1175 40.0142 35.6341C40.1175 36.4337 39.855 37.2372 39.3001 37.8214V44.0321C39.5813 44.1363 39.8786 44.1917 40.1785 44.1965C41.6578 44.1965 42.8571 42.9972 42.8571 41.5179V4.01793C42.8593 3.73978 42.8872 3.46251 42.9412 3.18916C42.9569 3.10458 42.9831 3.02436 43.0036 2.94109C43.0476 2.75929 43.1034 2.58055 43.1697 2.40529C43.2046 2.31635 43.2421 2.23221 43.2822 2.14633C43.3585 1.98371 43.4439 1.82589 43.5394 1.67331C43.5856 1.59832 43.6283 1.52246 43.6811 1.45096C43.7064 1.41434 43.7251 1.37423 43.7517 1.33936H9.82139C8.34216 1.33936 7.14282 2.5387 7.14282 4.01793ZM38.3928 22.7679H23.2143V20.9822H38.3928V22.7679ZM38.3928 18.3036H17.8571V16.5179H38.3928V18.3036ZM27.6785 6.6965H31.25V8.48221H27.6785V6.6965ZM18.75 6.6965H25.8928V8.48221H18.75V6.6965ZM16.0714 11.1608H33.9285V12.9465H16.0714V11.1608ZM11.6071 16.5179H16.0714V18.3036H11.6071V16.5179ZM11.6071 20.9822H21.4285V22.7679H11.6071V20.9822ZM11.6071 25.4465H29.4643V27.2322H11.6071V25.4465ZM11.6071 29.9108H26.7857V31.6965H11.6071V29.9108Z" fill="black"/>
<path d="M47.3214 1.33936C45.8422 1.33936 44.6428 2.5387 44.6428 4.01793V4.91078H50V4.01793C50 2.5387 48.8006 1.33936 47.3214 1.33936Z" fill="black"/>
</svg>
