<svg width="50" height="50" viewBox="0 0 50 50" fill="none" xmlns="http://www.w3.org/2000/svg">
<g clip-path="url(#clip0)">
<path d="M26.7544 10.5264L29.0614 16.3071L29.0702 16.3158L30.2632 19.2983H44.2983L47.807 10.5264H26.7544Z" fill="black"/>
<path d="M32.0176 28.9475H42.5439C43.0283 28.9475 43.4211 28.5547 43.4211 28.0703V25.4387H45.1755C45.6599 25.4387 46.0527 25.046 46.0527 24.5615V21.9299C46.0527 21.4455 45.6599 21.0527 45.1755 21.0527H29.386C28.9015 21.0527 28.5088 21.4455 28.5088 21.9299V24.5615C28.5088 25.046 28.9015 25.4387 29.386 25.4387H31.1404V28.0703C31.1404 28.5547 31.5331 28.9475 32.0176 28.9475Z" fill="black"/>
<path d="M36.4034 37.9385V39.4736C36.4034 39.958 36.7962 40.3508 37.2806 40.3508C37.7651 40.3508 38.1578 39.958 38.1578 39.4736V37.9385L40.7894 35.9648V30.7017H33.7719V35.9648L36.4034 37.9385Z" fill="black"/>
<path d="M48.6842 0H25.8772C25.3927 0 25 0.392733 25 0.877193V7.89474C25.0023 8.21304 25.1769 8.50511 25.4561 8.6579C25.7281 8.83333 24.3947 8.77193 48.6842 8.77193C49.1687 8.77193 49.5614 8.3792 49.5614 7.89474V0.877193C49.5614 0.392733 49.1687 0 48.6842 0ZM46.0526 4.38597H33.7719C33.2875 4.38597 32.8947 3.99323 32.8947 3.50877C32.8947 3.02431 33.2875 2.63158 33.7719 2.63158H46.0526C46.5371 2.63158 46.9298 3.02431 46.9298 3.50877C46.9298 3.99323 46.5371 4.38597 46.0526 4.38597Z" fill="black"/>
<path d="M25.1667 13.7019L24.5263 10.1931C23.9909 9.87262 23.5915 9.36709 23.4035 8.77209H18.5702C18.1412 8.76509 17.7701 9.06938 17.693 9.49139L16.9298 13.7019C19.6271 12.9732 22.4694 12.9732 25.1667 13.7019Z" fill="black"/>
<path d="M6.57899 29.386C6.57153 35.7313 10.7004 41.3407 16.7613 43.2193C22.8221 45.098 29.3998 42.8073 32.9825 37.5702L32.0176 36.8421V30.7017C30.5642 30.7017 29.386 29.5235 29.386 28.0702V27.193C27.9326 27.193 26.7544 26.0148 26.7544 24.5614V21.9298C26.759 20.8426 27.4317 19.8702 28.4474 19.4824L27.1579 16.2631C22.6751 14.1879 17.4439 14.5392 13.2788 17.1952C9.11363 19.8512 6.58842 24.4461 6.57899 29.386ZM17.9825 17.5438C18.467 17.5438 18.8597 17.9366 18.8597 18.421C18.8597 18.9055 18.467 19.2982 17.9825 19.2982C17.498 19.2982 17.1053 18.9055 17.1053 18.421C17.1053 17.9366 17.498 17.5438 17.9825 17.5438ZM21.0527 25.4386C23.2327 25.4386 25 27.2059 25 29.386C25 31.566 23.2327 33.3333 21.0527 33.3333C18.8726 33.3333 17.1053 31.566 17.1053 29.386C17.1101 27.2079 18.8746 25.4434 21.0527 25.4386ZM14.9562 19.3947C15.2379 19.2252 15.5908 19.2275 15.8703 19.4006C16.1499 19.5737 16.3091 19.8887 16.2828 20.2164C16.2566 20.5442 16.0492 20.8297 15.7457 20.9561C12.6579 22.5 10.965 25.6491 10.965 29.8245C10.965 30.309 10.5722 30.7017 10.0878 30.7017C9.6033 30.7017 9.21057 30.309 9.21057 29.8245C9.21057 24.9474 11.2544 21.2456 14.9562 19.3947Z" fill="#012E67"/>
<path d="M18.5702 50.0001H23.5351C23.9641 50.0071 24.3351 49.7029 24.4123 49.2808L25.1755 45.0703C22.481 45.7975 19.6419 45.7975 16.9474 45.0703L17.7105 49.2808C17.7866 49.6963 18.1478 49.9986 18.5702 50.0001Z" fill="black"/>
<path d="M7.05273 37.5613L4.61413 41.0701C4.37706 41.4185 4.42126 41.8862 4.7194 42.1841L8.22817 45.6929C8.52824 45.9882 8.99583 46.0287 9.34221 45.7894L12.851 43.3508C10.4594 41.9428 8.46431 39.9508 7.05273 37.5613Z" fill="black"/>
<path d="M29.693 43.0964L33.6316 45.8245C33.98 46.0616 34.4478 46.0174 34.7456 45.7192C38.5176 41.8947 38.4298 42.114 38.4825 41.8157C37.6665 42.2346 36.6913 42.1984 35.9087 41.7202C35.126 41.242 34.6488 40.3908 34.6491 39.4736V38.8157L34.3684 38.5964C33.1297 40.3967 31.5393 41.9275 29.693 43.0964Z" fill="black"/>
<path d="M8.23678 13.0526L4.728 16.5614C4.43265 16.8615 4.39215 17.329 4.63151 17.6754L7.07011 21.1842C8.48431 18.7786 10.4891 16.7738 12.8947 15.3596L9.3859 12.921C9.02409 12.6704 8.53256 12.7267 8.23678 13.0526Z" fill="black"/>
<path d="M0.438595 26.9033V31.8682C0.431598 32.2972 0.735882 32.6683 1.15789 32.7454L5.36842 33.5086C4.64124 30.8141 4.64124 27.975 5.36842 25.2805L1.15789 26.0437C0.742441 26.1197 0.440144 26.481 0.438595 26.9033Z" fill="black"/>
</g>
<defs>
<clipPath id="clip0">
<rect width="50" height="50" fill="white"/>
</clipPath>
</defs>
</svg>
