<svg width="142" height="41" viewBox="0 0 142 41" fill="none" xmlns="http://www.w3.org/2000/svg">
<path d="M11.3905 6.2V8.84H4.67047V23H1.91047V6.2H11.3905ZM16.5471 23.312C14.7871 23.312 13.2911 22.704 12.0591 21.488C10.8271 20.272 10.2111 18.776 10.2111 17C10.2111 15.224 10.8271 13.728 12.0591 12.512C13.2911 11.296 14.7871 10.688 16.5471 10.688C18.3231 10.688 19.8191 11.296 21.0351 12.512C22.2671 13.728 22.8831 15.224 22.8831 17C22.8831 18.776 22.2671 20.272 21.0351 21.488C19.8191 22.704 18.3231 23.312 16.5471 23.312ZM13.8831 19.712C14.6031 20.432 15.4911 20.792 16.5471 20.792C17.6031 20.792 18.4911 20.432 19.2111 19.712C19.9311 18.992 20.2911 18.088 20.2911 17C20.2911 15.912 19.9311 15.008 19.2111 14.288C18.4911 13.568 17.6031 13.208 16.5471 13.208C15.4911 13.208 14.6031 13.568 13.8831 14.288C13.1631 15.008 12.8031 15.912 12.8031 17C12.8031 18.088 13.1631 18.992 13.8831 19.712ZM32.0188 10.688C33.6668 10.688 35.0748 11.304 36.2428 12.536C37.4108 13.752 37.9948 15.24 37.9948 17C37.9948 18.776 37.4108 20.272 36.2428 21.488C35.0748 22.704 33.6668 23.312 32.0188 23.312C30.1948 23.312 28.7948 22.64 27.8188 21.296V27.8H25.2268V11H27.8188V12.728C28.7948 11.368 30.1948 10.688 32.0188 10.688ZM28.8988 19.76C29.6188 20.48 30.5228 20.84 31.6108 20.84C32.6988 20.84 33.6028 20.48 34.3228 19.76C35.0428 19.024 35.4028 18.104 35.4028 17C35.4028 15.896 35.0428 14.984 34.3228 14.264C33.6028 13.528 32.6988 13.16 31.6108 13.16C30.5228 13.16 29.6188 13.528 28.8988 14.264C28.1788 14.984 27.8188 15.896 27.8188 17C27.8188 18.104 28.1788 19.024 28.8988 19.76ZM49.032 11H51.024V23H48.48V15.368L42.336 23H40.344V11H42.888V18.608L49.032 11ZM60.7755 16.856C62.0555 17.432 62.6955 18.384 62.6955 19.712C62.6955 20.736 62.2795 21.592 61.4475 22.28C60.6155 22.968 59.4555 23.312 57.9675 23.312C55.5515 23.312 53.9195 22.352 53.0715 20.432L55.1835 19.184C55.6155 20.384 56.5515 20.984 57.9915 20.984C58.6635 20.984 59.1915 20.848 59.5755 20.576C59.9595 20.288 60.1515 19.912 60.1515 19.448C60.1515 19.032 59.9995 18.704 59.6955 18.464C59.3915 18.208 58.9675 18.08 58.4235 18.08H56.7195V15.8H57.9915C58.5195 15.8 58.9275 15.68 59.2155 15.44C59.5195 15.184 59.6715 14.84 59.6715 14.408C59.6715 13.992 59.5035 13.656 59.1675 13.4C58.8315 13.128 58.3835 12.992 57.8235 12.992C56.6235 12.992 55.7915 13.52 55.3275 14.576L53.2155 13.376C54.1115 11.584 55.6315 10.688 57.7755 10.688C59.1195 10.688 60.1835 11.032 60.9675 11.72C61.7675 12.392 62.1675 13.216 62.1675 14.192C62.1675 15.392 61.7035 16.28 60.7755 16.856ZM70.4768 23.312C68.7168 23.312 67.2208 22.704 65.9888 21.488C64.7568 20.272 64.1408 18.776 64.1408 17C64.1408 15.224 64.7568 13.728 65.9888 12.512C67.2208 11.296 68.7168 10.688 70.4768 10.688C72.2528 10.688 73.7488 11.296 74.9648 12.512C76.1968 13.728 76.8128 15.224 76.8128 17C76.8128 18.776 76.1968 20.272 74.9648 21.488C73.7488 22.704 72.2528 23.312 70.4768 23.312ZM67.8128 19.712C68.5328 20.432 69.4208 20.792 70.4768 20.792C71.5328 20.792 72.4208 20.432 73.1408 19.712C73.8608 18.992 74.2208 18.088 74.2208 17C74.2208 15.912 73.8608 15.008 73.1408 14.288C72.4208 13.568 71.5328 13.208 70.4768 13.208C69.4208 13.208 68.5328 13.568 67.8128 14.288C67.0928 15.008 66.7328 15.912 66.7328 17C66.7328 18.088 67.0928 18.992 67.8128 19.712ZM87.2445 11H89.8365V23H87.2445V18.224H81.7485V23H79.1565V11H81.7485V15.776H87.2445V11ZM102.012 11V13.496H98.1V23H95.508V13.496H91.572V11H102.012ZM112.801 11H115.393V23H112.801V21.272C111.825 22.632 110.425 23.312 108.601 23.312C106.953 23.312 105.545 22.704 104.377 21.488C103.209 20.256 102.625 18.76 102.625 17C102.625 15.224 103.209 13.728 104.377 12.512C105.545 11.296 106.953 10.688 108.601 10.688C110.425 10.688 111.825 11.36 112.801 12.704V11ZM106.297 19.76C107.017 20.48 107.921 20.84 109.009 20.84C110.097 20.84 111.001 20.48 111.721 19.76C112.441 19.024 112.801 18.104 112.801 17C112.801 15.896 112.441 14.984 111.721 14.264C111.001 13.528 110.097 13.16 109.009 13.16C107.921 13.16 107.017 13.528 106.297 14.264C105.577 14.984 105.217 15.896 105.217 17C105.217 18.104 105.577 19.024 106.297 19.76ZM128.542 11V23H125.95V13.496H121.942V17.96C121.942 19.864 121.526 21.216 120.694 22.016C119.862 22.816 118.678 23.144 117.142 23V20.576C117.878 20.704 118.43 20.552 118.798 20.12C119.166 19.688 119.35 18.928 119.35 17.84V11H128.542ZM136.795 15.08C138.075 15.08 139.123 15.448 139.939 16.184C140.755 16.904 141.163 17.856 141.163 19.04C141.163 20.208 140.755 21.16 139.939 21.896C139.123 22.632 138.075 23 136.795 23H131.563V11H134.155V15.08H136.795ZM136.819 20.672C137.331 20.672 137.755 20.52 138.091 20.216C138.443 19.912 138.619 19.52 138.619 19.04C138.619 18.544 138.443 18.152 138.091 17.864C137.755 17.56 137.331 17.408 136.819 17.408H134.155V20.672H136.819Z" fill="#012E67"/>
<path d="M5.27257 34.1V39H4.89457V34.45H2.14357V39H1.77257V34.1H5.27257ZM8.26754 35.423C8.77154 35.423 9.19854 35.6003 9.54854 35.955C9.9032 36.305 10.0805 36.7367 10.0805 37.25C10.0805 37.7633 9.9032 38.1973 9.54854 38.552C9.19854 38.902 8.77154 39.077 8.26754 39.077C7.9362 39.077 7.63754 38.9977 7.37154 38.839C7.1102 38.6803 6.9072 38.4633 6.76254 38.188V40.4H6.41254V35.5H6.76254V36.312C6.9072 36.0367 7.1102 35.8197 7.37154 35.661C7.63754 35.5023 7.9362 35.423 8.26754 35.423ZM7.18954 38.307C7.47887 38.5963 7.8312 38.741 8.24654 38.741C8.66187 38.741 9.01187 38.5963 9.29654 38.307C9.58587 38.0177 9.73054 37.6653 9.73054 37.25C9.73054 36.8347 9.58587 36.4823 9.29654 36.193C9.01187 35.9037 8.66187 35.759 8.24654 35.759C7.8312 35.759 7.47887 35.9037 7.18954 36.193C6.90487 36.4823 6.76254 36.8347 6.76254 37.25C6.76254 37.6653 6.90487 38.0177 7.18954 38.307ZM12.5273 39.077C12.0139 39.077 11.5776 38.902 11.2183 38.552C10.8636 38.1973 10.6863 37.7633 10.6863 37.25C10.6863 36.7367 10.8636 36.305 11.2183 35.955C11.5776 35.6003 12.0139 35.423 12.5273 35.423C13.0359 35.423 13.4676 35.6003 13.8223 35.955C14.1816 36.305 14.3613 36.7367 14.3613 37.25C14.3613 37.7633 14.1816 38.1973 13.8223 38.552C13.4676 38.902 13.0359 39.077 12.5273 39.077ZM11.4703 38.307C11.7596 38.5963 12.1119 38.741 12.5273 38.741C12.9426 38.741 13.2926 38.5963 13.5773 38.307C13.8619 38.0177 14.0043 37.6653 14.0043 37.25C14.0043 36.8347 13.8619 36.4823 13.5773 36.193C13.2926 35.9037 12.9426 35.759 12.5273 35.759C12.1119 35.759 11.7596 35.9037 11.4703 36.193C11.1856 36.4823 11.0433 36.8347 11.0433 37.25C11.0433 37.6653 11.1856 38.0177 11.4703 38.307ZM17.3946 35.5V35.843H15.5536V39H15.2036V35.5H17.3946ZM19.875 35.423C20.379 35.423 20.806 35.6003 21.156 35.955C21.5106 36.305 21.688 36.7367 21.688 37.25C21.688 37.7633 21.5106 38.1973 21.156 38.552C20.806 38.902 20.379 39.077 19.875 39.077C19.5436 39.077 19.245 38.9977 18.979 38.839C18.7176 38.6803 18.5146 38.4633 18.37 38.188V40.4H18.02V35.5H18.37V36.312C18.5146 36.0367 18.7176 35.8197 18.979 35.661C19.245 35.5023 19.5436 35.423 19.875 35.423ZM18.797 38.307C19.0863 38.5963 19.4386 38.741 19.854 38.741C20.2693 38.741 20.6193 38.5963 20.904 38.307C21.1933 38.0177 21.338 37.6653 21.338 37.25C21.338 36.8347 21.1933 36.4823 20.904 36.193C20.6193 35.9037 20.2693 35.759 19.854 35.759C19.4386 35.759 19.0863 35.9037 18.797 36.193C18.5123 36.4823 18.37 36.8347 18.37 37.25C18.37 37.6653 18.5123 38.0177 18.797 38.307ZM24.1067 35.423C24.62 35.423 25.0353 35.605 25.3527 35.969C25.6747 36.333 25.8357 36.7647 25.8357 37.264C25.8357 37.2827 25.8333 37.3107 25.8287 37.348C25.8287 37.3853 25.8287 37.4133 25.8287 37.432H22.6577C22.6997 37.824 22.856 38.1413 23.1267 38.384C23.402 38.622 23.7403 38.741 24.1417 38.741C24.4217 38.741 24.6667 38.6827 24.8767 38.566C25.0867 38.4493 25.2453 38.2953 25.3527 38.104L25.6607 38.286C25.516 38.5287 25.3107 38.7223 25.0447 38.867C24.7787 39.007 24.4753 39.077 24.1347 39.077C23.598 39.077 23.157 38.9067 22.8117 38.566C22.4663 38.2207 22.2937 37.782 22.2937 37.25C22.2937 36.7273 22.4617 36.2933 22.7977 35.948C23.1383 35.598 23.5747 35.423 24.1067 35.423ZM24.1067 35.759C23.71 35.759 23.3787 35.8827 23.1127 36.13C22.8467 36.3773 22.695 36.697 22.6577 37.089H25.4717C25.4343 36.6737 25.285 36.3493 25.0237 36.116C24.767 35.878 24.4613 35.759 24.1067 35.759ZM28.2567 39.077C27.7294 39.077 27.2907 38.902 26.9407 38.552C26.5907 38.202 26.4157 37.768 26.4157 37.25C26.4157 36.732 26.5907 36.298 26.9407 35.948C27.2907 35.598 27.7294 35.423 28.2567 35.423C28.5974 35.423 28.9054 35.5047 29.1807 35.668C29.4561 35.8267 29.6567 36.0437 29.7827 36.319L29.4957 36.487C29.3931 36.263 29.2297 36.0857 29.0057 35.955C28.7864 35.8243 28.5367 35.759 28.2567 35.759C27.8367 35.759 27.4844 35.9037 27.1997 36.193C26.9151 36.4777 26.7727 36.83 26.7727 37.25C26.7727 37.67 26.9151 38.0247 27.1997 38.314C27.4844 38.5987 27.8367 38.741 28.2567 38.741C28.5367 38.741 28.7864 38.6757 29.0057 38.545C29.2297 38.4143 29.4001 38.237 29.5167 38.013L29.8107 38.188C29.6707 38.4587 29.4607 38.6757 29.1807 38.839C28.9054 38.9977 28.5974 39.077 28.2567 39.077ZM32.1464 39.077C31.6191 39.077 31.1804 38.902 30.8304 38.552C30.4804 38.202 30.3054 37.768 30.3054 37.25C30.3054 36.732 30.4804 36.298 30.8304 35.948C31.1804 35.598 31.6191 35.423 32.1464 35.423C32.4871 35.423 32.7951 35.5047 33.0704 35.668C33.3457 35.8267 33.5464 36.0437 33.6724 36.319L33.3854 36.487C33.2827 36.263 33.1194 36.0857 32.8954 35.955C32.6761 35.8243 32.4264 35.759 32.1464 35.759C31.7264 35.759 31.3741 35.9037 31.0894 36.193C30.8047 36.4777 30.6624 36.83 30.6624 37.25C30.6624 37.67 30.8047 38.0247 31.0894 38.314C31.3741 38.5987 31.7264 38.741 32.1464 38.741C32.4264 38.741 32.6761 38.6757 32.8954 38.545C33.1194 38.4143 33.2897 38.237 33.4064 38.013L33.7004 38.188C33.5604 38.4587 33.3504 38.6757 33.0704 38.839C32.7951 38.9977 32.4871 39.077 32.1464 39.077ZM37.0502 35.5H37.3582V39H37.0012V36.109L34.7752 39H34.4672V35.5H34.8172V38.391L37.0502 35.5ZM40.5949 37.194C41.0056 37.3293 41.2109 37.6093 41.2109 38.034C41.2109 38.314 41.1176 38.545 40.9309 38.727C40.7489 38.909 40.4829 39 40.1329 39H38.4389V35.5H39.9999C40.3312 35.5 40.5879 35.5863 40.7699 35.759C40.9519 35.9317 41.0429 36.151 41.0429 36.417C41.0429 36.7903 40.8936 37.0493 40.5949 37.194ZM39.9999 35.843H38.7889V37.054H39.9999C40.2239 37.054 40.3942 37.0003 40.5109 36.893C40.6276 36.7857 40.6859 36.634 40.6859 36.438C40.6859 36.2513 40.6252 36.1067 40.5039 36.004C40.3872 35.8967 40.2192 35.843 39.9999 35.843ZM40.1329 38.657C40.3662 38.657 40.5459 38.601 40.6719 38.489C40.7979 38.377 40.8609 38.2207 40.8609 38.02C40.8609 37.824 40.7956 37.6723 40.6649 37.565C40.5389 37.453 40.3616 37.397 40.1329 37.397H38.7889V38.657H40.1329ZM44.5208 35.5H44.8778V39H44.5208V37.418H42.3368V39H41.9868V35.5H42.3368V37.082H44.5208V35.5ZM47.3444 36.858C47.6664 36.858 47.9394 36.9583 48.1634 37.159C48.3874 37.3597 48.4994 37.6163 48.4994 37.929C48.4994 38.2417 48.3874 38.4983 48.1634 38.699C47.9394 38.8997 47.6664 39 47.3444 39H45.9584V35.5H46.3084V36.858H47.3444ZM49.0384 35.5H49.3884V39H49.0384V35.5ZM47.3444 38.657C47.5684 38.657 47.7574 38.5893 47.9114 38.454C48.0654 38.3187 48.1424 38.1437 48.1424 37.929C48.1424 37.7097 48.0654 37.5347 47.9114 37.404C47.7621 37.2687 47.5731 37.201 47.3444 37.201H46.3084V38.657H47.3444ZM52.0383 35.423C52.5516 35.423 52.967 35.605 53.2843 35.969C53.6063 36.333 53.7673 36.7647 53.7673 37.264C53.7673 37.2827 53.765 37.3107 53.7603 37.348C53.7603 37.3853 53.7603 37.4133 53.7603 37.432H50.5893C50.6313 37.824 50.7876 38.1413 51.0583 38.384C51.3336 38.622 51.672 38.741 52.0733 38.741C52.3533 38.741 52.5983 38.6827 52.8083 38.566C53.0183 38.4493 53.177 38.2953 53.2843 38.104L53.5923 38.286C53.4476 38.5287 53.2423 38.7223 52.9763 38.867C52.7103 39.007 52.407 39.077 52.0663 39.077C51.5296 39.077 51.0886 38.9067 50.7433 38.566C50.398 38.2207 50.2253 37.782 50.2253 37.25C50.2253 36.7273 50.3933 36.2933 50.7293 35.948C51.07 35.598 51.5063 35.423 52.0383 35.423ZM52.0383 35.759C51.6416 35.759 51.3103 35.8827 51.0443 36.13C50.7783 36.3773 50.6266 36.697 50.5893 37.089H53.4033C53.366 36.6737 53.2166 36.3493 52.9553 36.116C52.6986 35.878 52.393 35.759 52.0383 35.759ZM58.9016 35.5V35.843H57.6276V39H57.2776V35.843H56.0036V35.5H58.9016ZM60.9729 35.423C61.4862 35.423 61.9016 35.605 62.2189 35.969C62.5409 36.333 62.7019 36.7647 62.7019 37.264C62.7019 37.2827 62.6996 37.3107 62.6949 37.348C62.6949 37.3853 62.6949 37.4133 62.6949 37.432H59.5239C59.5659 37.824 59.7222 38.1413 59.9929 38.384C60.2682 38.622 60.6066 38.741 61.0079 38.741C61.2879 38.741 61.5329 38.6827 61.7429 38.566C61.9529 38.4493 62.1116 38.2953 62.2189 38.104L62.5269 38.286C62.3822 38.5287 62.1769 38.7223 61.9109 38.867C61.6449 39.007 61.3416 39.077 61.0009 39.077C60.4642 39.077 60.0232 38.9067 59.6779 38.566C59.3326 38.2207 59.1599 37.782 59.1599 37.25C59.1599 36.7273 59.3279 36.2933 59.6639 35.948C60.0046 35.598 60.4409 35.423 60.9729 35.423ZM60.9729 35.759C60.5762 35.759 60.2449 35.8827 59.9789 36.13C59.7129 36.3773 59.5612 36.697 59.5239 37.089H62.3379C62.3006 36.6737 62.1512 36.3493 61.8899 36.116C61.6332 35.878 61.3276 35.759 60.9729 35.759ZM66.2252 39H65.7982L64.6152 37.474L63.4322 39H63.0052L64.4052 37.201L63.0892 35.5H63.5162L64.6152 36.921L65.7212 35.5H66.1412L64.8322 37.194L66.2252 39ZM69.4651 35.5H69.8221V39H69.4651V37.418H67.2811V39H66.9311V35.5H67.2811V37.082H69.4651V35.5ZM72.5058 39.077C71.9924 39.077 71.5561 38.902 71.1968 38.552C70.8421 38.1973 70.6648 37.7633 70.6648 37.25C70.6648 36.7367 70.8421 36.305 71.1968 35.955C71.5561 35.6003 71.9924 35.423 72.5058 35.423C73.0144 35.423 73.4461 35.6003 73.8008 35.955C74.1601 36.305 74.3398 36.7367 74.3398 37.25C74.3398 37.7633 74.1601 38.1973 73.8008 38.552C73.4461 38.902 73.0144 39.077 72.5058 39.077ZM71.4488 38.307C71.7381 38.5963 72.0904 38.741 72.5058 38.741C72.9211 38.741 73.2711 38.5963 73.5558 38.307C73.8404 38.0177 73.9828 37.6653 73.9828 37.25C73.9828 36.8347 73.8404 36.4823 73.5558 36.193C73.2711 35.9037 72.9211 35.759 72.5058 35.759C72.0904 35.759 71.7381 35.9037 71.4488 36.193C71.1641 36.4823 71.0218 36.8347 71.0218 37.25C71.0218 37.6653 71.1641 38.0177 71.4488 38.307ZM77.8873 35.5V39H77.5373V35.843H75.7733V37.53C75.7733 38.0993 75.6683 38.4937 75.4583 38.713C75.2483 38.9323 74.9613 39.028 74.5973 39V38.671C74.8773 38.6943 75.085 38.6197 75.2203 38.447C75.3557 38.2743 75.4233 37.9687 75.4233 37.53V35.5H77.8873ZM80.5653 39.077C80.052 39.077 79.6157 38.902 79.2563 38.552C78.9017 38.1973 78.7243 37.7633 78.7243 37.25C78.7243 36.7367 78.9017 36.305 79.2563 35.955C79.6157 35.6003 80.052 35.423 80.5653 35.423C81.074 35.423 81.5057 35.6003 81.8603 35.955C82.2197 36.305 82.3993 36.7367 82.3993 37.25C82.3993 37.7633 82.2197 38.1973 81.8603 38.552C81.5057 38.902 81.074 39.077 80.5653 39.077ZM79.5083 38.307C79.7977 38.5963 80.15 38.741 80.5653 38.741C80.9807 38.741 81.3307 38.5963 81.6153 38.307C81.9 38.0177 82.0423 37.6653 82.0423 37.25C82.0423 36.8347 81.9 36.4823 81.6153 36.193C81.3307 35.9037 80.9807 35.759 80.5653 35.759C80.15 35.759 79.7977 35.9037 79.5083 36.193C79.2237 36.4823 79.0813 36.8347 79.0813 37.25C79.0813 37.6653 79.2237 38.0177 79.5083 38.307ZM85.4326 35.5V35.843H83.5916V39H83.2416V35.5H85.4326ZM88.641 35.5H88.949V39H88.592V36.109L86.366 39H86.058V35.5H86.408V38.391L88.641 35.5ZM92.6127 35.5H92.9207V39H92.5637V36.109L90.3377 39H90.0297V35.5H90.3797V38.391L92.6127 35.5ZM97.3936 39.084C96.8896 39.084 96.4696 38.9183 96.1336 38.587C95.7976 38.251 95.6296 37.817 95.6296 37.285C95.6296 36.7017 95.7136 36.2513 95.8816 35.934C96.0543 35.612 96.4066 35.3203 96.9386 35.059C97.0413 35.0123 97.1626 34.9587 97.3026 34.898C97.4426 34.8373 97.5546 34.7907 97.6386 34.758C97.7273 34.7207 97.8206 34.6763 97.9186 34.625C98.0213 34.569 98.1029 34.5153 98.1636 34.464C98.2243 34.4127 98.2779 34.3497 98.3246 34.275C98.3713 34.1957 98.4016 34.107 98.4156 34.009L98.6956 34.17C98.6723 34.3007 98.6279 34.415 98.5626 34.513C98.5019 34.611 98.4086 34.702 98.2826 34.786C98.1613 34.8653 98.0539 34.9283 97.9606 34.975C97.8719 35.0217 97.7319 35.0847 97.5406 35.164C97.3493 35.2433 97.2116 35.3017 97.1276 35.339C96.7823 35.493 96.5279 35.661 96.3646 35.843C96.2059 36.025 96.0986 36.27 96.0426 36.578C96.2059 36.3213 96.4183 36.13 96.6796 36.004C96.9409 35.878 97.2046 35.815 97.4706 35.815C97.9373 35.815 98.3246 35.969 98.6326 36.277C98.9406 36.585 99.0946 36.977 99.0946 37.453C99.0946 37.9243 98.9336 38.314 98.6116 38.622C98.2943 38.93 97.8883 39.084 97.3936 39.084ZM97.3936 38.734C97.7856 38.734 98.1076 38.615 98.3596 38.377C98.6116 38.1343 98.7376 37.8263 98.7376 37.453C98.7376 37.075 98.6163 36.7647 98.3736 36.522C98.1309 36.2793 97.8159 36.158 97.4286 36.158C97.0739 36.158 96.7543 36.27 96.4696 36.494C96.1896 36.718 96.0356 37.0073 96.0076 37.362C96.0076 37.7633 96.1383 38.0923 96.3996 38.349C96.6609 38.6057 96.9923 38.734 97.3936 38.734ZM102.292 35.5H102.67L101.158 39.322C101.023 39.6673 100.831 39.938 100.584 40.134C100.337 40.3347 100.066 40.4233 99.7719 40.4V40.071C99.9959 40.0897 100.197 40.0243 100.374 39.875C100.556 39.7303 100.703 39.5227 100.815 39.252L100.892 39.063L99.2819 35.5H99.6599L101.074 38.615L102.292 35.5ZM105.153 35.423C105.657 35.423 106.084 35.6003 106.434 35.955C106.789 36.305 106.966 36.7367 106.966 37.25C106.966 37.7633 106.789 38.1973 106.434 38.552C106.084 38.902 105.657 39.077 105.153 39.077C104.822 39.077 104.523 38.9977 104.257 38.839C103.996 38.6803 103.793 38.4633 103.648 38.188V40.4H103.298V35.5H103.648V36.312C103.793 36.0367 103.996 35.8197 104.257 35.661C104.523 35.5023 104.822 35.423 105.153 35.423ZM104.075 38.307C104.365 38.5963 104.717 38.741 105.132 38.741C105.548 38.741 105.898 38.5963 106.182 38.307C106.472 38.0177 106.616 37.6653 106.616 37.25C106.616 36.8347 106.472 36.4823 106.182 36.193C105.898 35.9037 105.548 35.759 105.132 35.759C104.717 35.759 104.365 35.9037 104.075 36.193C103.791 36.4823 103.648 36.8347 103.648 37.25C103.648 37.6653 103.791 38.0177 104.075 38.307ZM109.385 35.423C109.898 35.423 110.314 35.605 110.631 35.969C110.953 36.333 111.114 36.7647 111.114 37.264C111.114 37.2827 111.112 37.3107 111.107 37.348C111.107 37.3853 111.107 37.4133 111.107 37.432H107.936C107.978 37.824 108.134 38.1413 108.405 38.384C108.68 38.622 109.019 38.741 109.42 38.741C109.7 38.741 109.945 38.6827 110.155 38.566C110.365 38.4493 110.524 38.2953 110.631 38.104L110.939 38.286C110.794 38.5287 110.589 38.7223 110.323 38.867C110.057 39.007 109.754 39.077 109.413 39.077C108.876 39.077 108.435 38.9067 108.09 38.566C107.745 38.2207 107.572 37.782 107.572 37.25C107.572 36.7273 107.74 36.2933 108.076 35.948C108.417 35.598 108.853 35.423 109.385 35.423ZM109.385 35.759C108.988 35.759 108.657 35.8827 108.391 36.13C108.125 36.3773 107.973 36.697 107.936 37.089H110.75C110.713 36.6737 110.563 36.3493 110.302 36.116C110.045 35.878 109.74 35.759 109.385 35.759ZM114.466 35.5H114.823V39H114.466V37.418H112.282V39H111.932V35.5H112.282V37.082H114.466V35.5ZM118.487 35.5H118.795V39H118.438V36.109L116.212 39H115.904V35.5H116.254V38.391L118.487 35.5ZM122.297 35.5V39H121.947V37.635H121.191L120.092 39H119.637L120.757 37.628C120.473 37.5953 120.235 37.4833 120.043 37.292C119.852 37.096 119.756 36.8557 119.756 36.571C119.756 36.2583 119.868 36.0017 120.092 35.801C120.316 35.6003 120.589 35.5 120.911 35.5H122.297ZM120.911 37.299H121.947V35.843H120.911C120.687 35.843 120.498 35.9107 120.344 36.046C120.19 36.1813 120.113 36.3563 120.113 36.571C120.113 36.7903 120.188 36.9677 120.337 37.103C120.491 37.2337 120.683 37.299 120.911 37.299Z" fill="#012E67"/>
</svg>
