<svg width="45" height="45" viewBox="0 0 45 45" fill="none" xmlns="http://www.w3.org/2000/svg">
<path d="M38.8957 12.6454C38.5916 12.2187 38.1 11.9654 37.576 11.9654H31.3509C30.6908 11.9654 30.0967 12.3659 29.8487 12.9777L25.6245 23.4043H21.8231L20.2315 8.55545C20.1433 7.73182 19.4483 7.10736 18.6199 7.10736H1.62088C0.725713 7.10736 0 7.83307 0 8.72824C0 9.62341 0.725713 10.3491 1.62088 10.3491H2.33279V23.5708C2.11764 23.4653 1.87664 23.4044 1.62088 23.4044C0.725713 23.4043 0 24.13 0 25.0252V28.592C0 29.2377 0.378633 29.7937 0.925049 30.0542C1.90257 29.1406 3.21372 28.5797 4.65398 28.5797H22.3777L22.1705 26.646H26.7166C27.3768 26.646 27.9709 26.2455 28.2189 25.6337L32.4431 15.2071H36.7408L37.8074 16.7032H41.7884L38.8957 12.6454ZM7.49065 20.1344H5.57446V10.3491H7.49065V20.1344ZM10.7323 20.1344V10.3491H17.1635L18.2123 20.1344H10.7323Z" fill="black"/>
<path d="M38.1296 18.3241V18.3242V22.4534C41.0865 23.7586 43.486 25.9897 45 28.8321V18.3241H38.1296Z" fill="black"/>
<path d="M32.1785 30.2007H4.65405C2.53343 30.2007 0.808044 31.9259 0.808044 34.0467C0.808044 36.1675 2.53343 37.8927 4.65405 37.8927H32.1784C34.299 37.8927 36.0244 36.1675 36.0244 34.0467C36.0244 31.9259 34.2991 30.2007 32.1785 30.2007ZM5.02583 35.5989C4.16854 35.5989 3.4735 34.9039 3.4735 34.0466C3.4735 33.1893 4.16854 32.4943 5.02583 32.4943C5.88311 32.4943 6.57815 33.1893 6.57815 34.0466C6.57815 34.904 5.88311 35.5989 5.02583 35.5989ZM32.0087 35.5988C31.1514 35.5988 30.4564 34.9038 30.4564 34.0465C30.4564 33.1892 31.1514 32.4942 32.0087 32.4942C32.866 32.4942 33.561 33.1892 33.561 34.0465C33.561 34.9038 32.8661 35.5988 32.0087 35.5988Z" fill="#012E67"/>
</svg>
