<svg width="45" height="45" viewBox="0 0 45 45" fill="none" xmlns="http://www.w3.org/2000/svg">
<path d="M9.31641 45H35.6836C37.8645 45 39.6387 43.2258 39.6387 41.0449V13.1836H30.4102C28.2292 13.1836 26.4551 11.4094 26.4551 9.22852V0H9.31641C7.13549 0 5.36133 1.77416 5.36133 3.95508V41.0449C5.36133 43.2258 7.13549 45 9.31641 45ZM14.5898 18.5449H30.4102C31.1389 18.5449 31.7285 19.1346 31.7285 19.8633C31.7285 20.592 31.1389 21.1816 30.4102 21.1816H14.5898C13.8611 21.1816 13.2715 20.592 13.2715 19.8633C13.2715 19.1346 13.8611 18.5449 14.5898 18.5449ZM14.5898 23.8184H30.4102C31.1389 23.8184 31.7285 24.408 31.7285 25.1367C31.7285 25.8654 31.1389 26.4551 30.4102 26.4551H14.5898C13.8611 26.4551 13.2715 25.8654 13.2715 25.1367C13.2715 24.408 13.8611 23.8184 14.5898 23.8184ZM14.5898 29.0918H30.4102C31.1389 29.0918 31.7285 29.6815 31.7285 30.4102C31.7285 31.1389 31.1389 31.7285 30.4102 31.7285H14.5898C13.8611 31.7285 13.2715 31.1389 13.2715 30.4102C13.2715 29.6815 13.8611 29.0918 14.5898 29.0918ZM14.5898 34.3652H25.1367C25.8654 34.3652 26.4551 34.9549 26.4551 35.6836C26.4551 36.4123 25.8654 37.002 25.1367 37.002H14.5898C13.8611 37.002 13.2715 36.4123 13.2715 35.6836C13.2715 34.9549 13.8611 34.3652 14.5898 34.3652Z" fill="black"/>
<path d="M30.4102 10.5469H38.8662L29.0918 0.772461V9.22851C29.0918 9.95589 29.6828 10.5469 30.4102 10.5469Z" fill="#012E67"/>
</svg>
