<svg width="45" height="45" viewBox="0 0 45 45" fill="none" xmlns="http://www.w3.org/2000/svg">
<path d="M33.0469 42.3633H30.4102C29.6832 42.3633 29.0918 41.7719 29.0918 41.0449V36.9141H15.9082V41.0449C15.9082 41.7719 15.3168 42.3633 14.5898 42.3633H11.9531C11.225 42.3633 10.6348 42.9536 10.6348 43.6816C10.6348 44.4097 11.225 45 11.9531 45H33.0469C33.775 45 34.3652 44.4097 34.3652 43.6816C34.3652 42.9536 33.775 42.3633 33.0469 42.3633Z" fill="black"/>
<path d="M19.8763 20.4752L15.89 18.1738V22.729L19.8763 25.0304V20.4752Z" fill="black"/>
<path d="M0.0878906 7.91016H5.36133V21.0938H0.0878906V7.91016Z" fill="black"/>
<path d="M43.5938 0H1.40625C0.678164 0 0.0878906 0.590273 0.0878906 1.31836V5.27344H44.9121V1.31836C44.9121 0.590273 44.3218 0 43.5938 0Z" fill="black"/>
<path d="M37.002 7.91016H44.9121V13.1836H37.002V7.91016Z" fill="black"/>
<path d="M37.002 15.8203H44.9121V21.0938H37.002V15.8203Z" fill="black"/>
<path d="M7.99805 22.4121C7.99805 23.1402 7.40777 23.7305 6.67969 23.7305H0.0878906V32.959C0.0878906 33.6871 0.678164 34.2773 1.40625 34.2773H34.3652V22.4988C34.3634 22.4699 34.3608 22.4414 34.3608 22.4121C34.3608 22.3828 34.3633 22.3542 34.3652 22.3254V14.5886C34.3634 14.5598 34.3608 14.5312 34.3608 14.502C34.3608 14.4727 34.3633 14.444 34.3652 14.4153V7.91016H7.99805V22.4121ZM20.5361 28.456C20.5363 28.4561 20.5358 28.4559 20.5361 28.456L13.9125 24.6319C13.5046 24.3964 13.2533 23.9612 13.2533 23.4902V15.8903C13.2533 15.4193 13.5046 14.984 13.9125 14.7486L20.4941 10.9487C20.902 10.7132 21.4045 10.7132 21.8124 10.9487L28.4353 14.7725C28.8432 15.0079 29.0945 15.4432 29.0945 15.9142V23.4901C29.0945 23.9598 28.8446 24.394 28.4384 24.63C28.4384 24.63 21.8558 28.4542 21.8554 28.4545C21.7361 28.5127 21.5197 28.5988 21.2368 28.6068C20.9094 28.616 20.6597 28.5158 20.5361 28.456Z" fill="#012E67"/>
<path d="M37.002 34.2773H43.5938C44.3218 34.2773 44.9121 33.6871 44.9121 32.959V23.7305H37.002V34.2773Z" fill="black"/>
<path d="M22.5131 25.0231L26.4579 22.7313V18.1976L22.5131 20.4751V25.0231Z" fill="black"/>
<path d="M21.1947 18.1918L22.1809 17.6223L25.1395 15.9142L21.1533 13.6127L17.2084 15.8903L20.1981 17.6164L21.1947 18.1918Z" fill="black"/>
</svg>
