<svg width="45" height="45" viewBox="0 0 45 45" fill="none" xmlns="http://www.w3.org/2000/svg">
<path d="M43.3949 39.9594L40.775 35.5851C40.3653 34.9194 39.4282 34.7571 38.8472 35.3379L37.9822 36.2277L34.4729 32.7182L32.718 34.4728L36.2275 37.9824L35.3377 38.8474C34.7879 39.3472 34.8774 40.3397 35.5849 40.7752L39.9592 43.3951C40.4174 43.681 41.0523 43.6124 41.4672 43.197L43.1973 41.4671C43.6173 41.0471 43.6914 40.4289 43.3949 39.9594Z" fill="black"/>
<path d="M23.1035 17.8641C22.634 17.3945 21.8432 17.3945 21.3486 17.8641L17.8639 21.3488C17.3943 21.8431 17.3943 22.6342 17.8639 23.1037L22.2336 27.4734C27.3507 22.3548 25.0264 24.6801 27.3669 22.3393C27.368 22.2817 27.3685 22.2237 27.3711 22.1662C27.3711 22.1545 27.3711 22.1432 27.3718 22.1324L23.1035 17.8641Z" fill="black"/>
<path d="M35.1402 28.5657C37.0429 28.8129 38.9957 28.1953 40.3551 26.8356C42.4807 24.71 42.7279 21.4724 41.1461 19.0503L36.8701 23.3261C36.3644 23.8318 35.5966 23.8072 35.1155 23.3261C34.6459 22.8565 34.6459 22.0655 35.1155 21.5712L39.391 17.2957C36.9937 15.7384 33.7313 15.9856 31.6304 18.0864C30.2465 19.4456 29.6286 21.3983 29.9006 23.3013L22.8565 30.3454C20.9533 30.0732 19.0007 30.6914 17.6416 32.0753C15.5407 34.1761 15.2936 37.4385 16.8508 39.8361L21.1264 35.5603C21.6209 35.091 22.4117 35.091 22.8813 35.5603C23.3756 36.0546 23.3756 36.8209 22.8813 37.3149L18.6055 41.591C20.9138 43.1294 24.2324 42.9583 26.3908 40.8002C27.7502 39.4405 28.3681 37.4883 28.1209 35.5851L35.1402 28.5657Z" fill="#012E67"/>
<path d="M16.109 19.6189L17.0236 18.7044C16.6279 18.5065 16.3812 18.0864 16.3812 17.6169C16.3812 16.9247 16.9248 16.3811 17.6168 16.3811C18.0863 16.3811 18.5063 16.628 18.7042 17.0235L19.6188 16.1092C20.3108 15.4172 21.2499 15.0217 22.2385 15.0217C23.2271 15.0217 24.1663 15.4172 24.8585 16.1092L27.9972 19.248C28.3925 18.1605 29.0599 17.1721 29.9005 16.3316C30.9632 15.2689 32.273 14.5029 33.6817 14.1319V13.9095H1.38696V21.324H15.1699C15.3183 20.7064 15.6147 20.1133 16.109 19.6189ZM7.73058 18.8527C7.03864 18.8527 6.49504 18.3088 6.49504 17.6169C6.49504 16.9247 7.03864 16.3811 7.73058 16.3811C8.42253 16.3811 8.96639 16.9247 8.96639 17.6169C8.96639 18.3088 8.42253 18.8527 7.73058 18.8527ZM12.6738 18.8527C11.9816 18.8527 11.438 18.3088 11.438 17.6169C11.438 16.9247 11.9816 16.3811 12.6738 16.3811C13.3657 16.3811 13.9096 16.9247 13.9096 17.6169C13.9096 18.3088 13.3657 18.8527 12.6738 18.8527Z" fill="black"/>
<path d="M18.8528 27.5774C18.803 28.2445 18.2839 28.7389 17.6167 28.7389C16.9248 28.7389 16.3812 28.195 16.3812 27.5028C16.3812 26.8356 16.8753 26.3168 17.5427 26.2673L16.109 24.8586C15.7878 24.5371 15.5654 24.1912 15.3923 23.7957H1.38696V32.446C1.38696 33.1382 1.93056 33.6818 2.62251 33.6818H13.8281C14.238 32.4478 14.9279 31.2966 15.8866 30.3353C16.8745 29.332 18.1118 28.5962 19.4606 28.1852L18.8528 27.5774ZM7.73058 28.7389C7.03863 28.7389 6.49504 28.195 6.49504 27.5028C6.49504 26.8109 7.03863 26.2673 7.73058 26.2673C8.42253 26.2673 8.96638 26.8109 8.96638 27.5028C8.96638 28.195 8.42253 28.7389 7.73058 28.7389ZM12.6738 28.7389C11.9816 28.7389 11.438 28.195 11.438 27.5028C11.438 26.8109 11.9816 26.2673 12.6738 26.2673C13.3657 26.2673 13.9096 26.8109 13.9096 27.5028C13.9096 28.195 13.3657 28.7389 12.6738 28.7389Z" fill="black"/>
<path d="M33.6817 2.70522C33.6817 2.01302 33.1381 1.46942 32.4461 1.46942H2.62251C1.93056 1.46942 1.38696 2.01302 1.38696 2.70522V11.4379H33.6817V2.70522ZM7.73058 8.96628C7.03864 8.96628 6.49504 8.42269 6.49504 7.73074C6.49504 7.03879 7.03864 6.49519 7.73058 6.49519C8.42253 6.49519 8.96639 7.03879 8.96639 7.73074C8.96639 8.42269 8.42253 8.96628 7.73058 8.96628ZM12.6738 8.96628C11.9816 8.96628 11.438 8.42269 11.438 7.73074C11.438 7.03879 11.9816 6.49519 12.6738 6.49519C13.3657 6.49519 13.9096 7.03879 13.9096 7.73074C13.9096 8.42269 13.3657 8.96628 12.6738 8.96628ZM17.6168 8.96628C16.9248 8.96628 16.3812 8.42269 16.3812 7.73074C16.3812 7.03879 16.9248 6.49519 17.6168 6.49519C18.3087 6.49519 18.8528 7.03879 18.8528 7.73074C18.8528 8.42269 18.3087 8.96628 17.6168 8.96628Z" fill="black"/>
</svg>
