<svg width="45" height="45" viewBox="0 0 45 45" fill="none" xmlns="http://www.w3.org/2000/svg">
<g clip-path="url(#clip0)">
<path d="M25.8671 39.1217C26.6153 39.1217 27.2218 38.5152 27.2218 37.767C27.2218 37.0189 26.6153 36.4124 25.8671 36.4124C25.119 36.4124 24.5125 37.0189 24.5125 37.767C24.5125 38.5152 25.119 39.1217 25.8671 39.1217Z" fill="black"/>
<path d="M7.09554 6.22354V1.55435C7.09554 1.0118 7.19837 0.486738 7.39313 0H7.13148C3.75745 0 1.01245 2.75177 1.01245 6.13406V6.54724C1.51413 6.33911 2.06354 6.22354 2.63957 6.22354H7.09554Z" fill="black"/>
<path d="M23.4627 29.6064L16.0684 30.6159V33.2526H8.21307V30.6159H16.0684L16.4786 27.8726H8.21307V25.2359H16.8728L17.1616 23.3049C17.2056 23.0269 17.2651 22.7537 17.3377 22.4854H8.21307V19.8487H18.6327C18.8459 19.5678 19.0782 19.2992 19.3313 19.0461L21.1654 17.212H8.21307V14.5753H23.8021L33.206 5.17149V0.000533075H11.3891C10.9254 -0.00263099 10.4943 0.1619 10.1807 0.471099C9.97606 0.672808 9.73217 1.02455 9.73217 1.55488V8.86079H2.63957C1.74238 8.86079 1.01245 9.59265 1.01245 10.4923V45.0004H33.206V21.9524L27.7218 27.4365C26.5591 28.5992 25.0864 29.3495 23.4627 29.6064ZM20.259 8.99658H26.7249V11.6333H20.259V8.99658ZM29.8584 37.7675C29.8584 39.9684 28.0679 41.7589 25.867 41.7589C23.6662 41.7589 21.8757 39.9684 21.8757 37.7675C21.8757 35.5666 23.6662 33.7761 25.867 33.7761C28.0679 33.7761 29.8584 35.5666 29.8584 37.7675Z" fill="black"/>
<path d="M38.5128 16.6451V20.4864L36.1423 22.857L38.0068 24.7214L41.1495 21.5785V14.0084L38.5128 16.6451Z" fill="#012E67"/>
<path d="M37.8446 13.7088L33.0587 8.92285L21.1335 20.848C20.3542 21.6273 19.8512 22.6146 19.6788 23.7032L19.042 27.7255L23.0641 27.0886C24.1526 26.9163 25.1399 26.4134 25.9194 25.6339L37.8446 13.7088Z" fill="#012E67"/>
<path d="M34.9189 7.06189L39.1966 2.7842L43.9818 7.56938L39.7041 11.8471L34.9189 7.06189Z" fill="#012E67"/>
</g>
<defs>
<clipPath id="clip0">
<rect width="45" height="45" fill="white"/>
</clipPath>
</defs>
</svg>
