<svg width="45" height="45" viewBox="0 0 45 45" fill="none" xmlns="http://www.w3.org/2000/svg">
<g clip-path="url(#clip0)">
<path d="M38.6977 6.30195C39.2346 6.83856 40.6512 6.62227 41.8236 5.44948C43.0414 3.94126 44.0792 2.2964 44.9163 0.547857C45.0309 0.299292 45.0138 0.116644 44.9485 0.0520993C44.9008 0.0139904 44.8404 -0.00454896 44.7796 0.000600874C44.666 0.00506407 44.5544 0.0335598 44.4524 0.0840283C42.7039 0.921393 41.0587 1.9596 39.5501 3.17771C38.3787 4.34844 38.1604 5.7643 38.6977 6.30195Z" fill="black"/>
<path d="M20.8936 12.8571L20.893 6.42871H14.1573L10.9431 12.8571H20.8936Z" fill="black"/>
<path d="M9.14613 12.8571L12.3607 6.42871H10.1394L6.92517 12.8571H9.14613Z" fill="black"/>
<path d="M14.4642 45C14.9081 44.9997 15.2676 44.6402 15.2679 44.1967V24.1071C15.2679 22.7757 14.1885 21.6967 12.8571 21.6967C11.5257 21.6967 10.4467 22.7757 10.4467 24.1071V44.1967C10.447 44.6402 10.8065 44.9997 11.25 45H14.4642ZM12.8571 24.1071C13.301 24.1071 13.6608 24.4669 13.6608 24.9108C13.6608 25.3548 13.301 25.7142 12.8571 25.7142C12.4136 25.7142 12.0537 25.3548 12.0537 24.9108C12.0537 24.4669 12.4136 24.1071 12.8571 24.1071ZM12.8571 27.3217C13.301 27.3217 13.6608 27.6811 13.6608 28.125C13.6608 28.5689 13.301 28.9287 12.8571 28.9287C12.4136 28.9287 12.0537 28.5689 12.0537 28.125C12.0537 27.6811 12.4136 27.3217 12.8571 27.3217Z" fill="black"/>
<path d="M8.34277 6.42871H4.82166V12.8571H5.12859L8.34277 6.42871Z" fill="black"/>
<path d="M23.7535 27.6845C24.3839 26.6796 24.8741 25.593 25.2106 24.4552C25.1653 24.4466 25.1196 24.449 25.075 24.4363C24.8137 24.3598 24.5761 24.218 24.3849 24.024L23.9245 24.4847C23.0624 25.353 22.989 26.7294 23.7535 27.6845Z" fill="black"/>
<path d="M24.2396 17.3515L25.5182 22.8918L30.175 18.2346L26.7661 14.8254L24.2396 17.3515ZM27.9022 18.2346C28.1319 18.4643 28.2005 18.81 28.0763 19.11C27.952 19.4105 27.6588 19.6062 27.334 19.6062C27.0089 19.6062 26.7157 19.4105 26.5914 19.11C26.4671 18.81 26.5358 18.4643 26.7658 18.2346C27.0796 17.9208 27.5884 17.9208 27.9022 18.2346Z" fill="black"/>
<path d="M28.2387 28.7169L26.0579 29.1525L25.066 30.1451C25.0612 30.1499 25.0599 30.1564 25.055 30.1609C25.0506 30.1657 25.0441 30.1671 25.0393 30.1719L22.7936 32.4175C22.7888 32.4223 22.7874 32.4292 22.7826 32.434C22.7778 32.4388 22.7709 32.4402 22.7661 32.445L21.9202 33.2909V34.898L31.7152 44.7669C32.0334 45.0686 32.5323 45.0676 32.8492 44.7651L35.1216 42.4923C35.4351 42.1782 35.4351 41.6701 35.1216 41.3556L32.4725 38.6327C31.8532 38.0037 31.8563 36.9933 32.4794 36.3682L33.049 35.7989L29.6394 32.3901C29.338 32.0886 29.1687 31.6797 29.1687 31.2537C29.1687 30.8273 29.338 30.4184 29.6394 30.1169L28.2387 28.7169ZM24.5256 34.8984C24.0821 34.8984 23.7223 34.5386 23.7223 34.0947C23.7223 33.6508 24.0821 33.2909 24.5256 33.2909C24.9696 33.2909 25.3294 33.6508 25.3294 34.0947C25.3294 34.5386 24.9696 34.8984 24.5256 34.8984Z" fill="black"/>
<path d="M21.6516 22.212C19.4581 24.4103 19.4581 27.9688 21.6516 30.1671L22.2115 30.7267L23.3479 29.5903L22.788 29.0304C21.2217 27.46 21.2217 24.9184 22.788 23.3484L23.7513 22.385L23.3256 20.5383L21.6516 22.212Z" fill="black"/>
<path d="M36.9934 10.2795L34.7206 8.00666C34.5703 7.85594 34.366 7.77149 34.1531 7.77149C33.9403 7.77114 33.736 7.85594 33.5853 8.00632L27.9026 13.689L31.3111 17.0985L36.9934 11.4159C37.3065 11.1017 37.3065 10.5936 36.9934 10.2795Z" fill="black"/>
<path d="M8.83919 33.1066V24.1071C8.83919 21.8882 10.6382 20.0892 12.8571 20.0892C15.0763 20.0892 16.875 21.8882 16.875 24.1071V33.1142C17.8538 32.7928 18.7894 32.352 19.66 31.8013C19.9354 31.63 20.2045 31.4453 20.4689 31.2516C17.6952 28.4192 17.7158 23.8826 20.5153 21.0756L22.8993 18.6912L22.6734 17.712C22.5463 17.1716 22.7094 16.6041 23.1042 16.2141L25.7142 13.6045V6.42872C25.7101 2.87979 22.8344 0.00411987 19.2858 0H6.42872C2.87979 0.00411987 0.00411987 2.87979 0 6.42872V20.8929C0.00171661 26.4451 3.56575 31.3697 8.83919 33.1066ZM3.21419 12.8571V6.42872C3.21522 5.54157 3.93414 4.82265 4.82162 4.82162H20.8929C21.7801 4.82265 22.499 5.54157 22.5 6.42872V12.8571C22.499 13.7442 21.7801 14.4632 20.8929 14.4642H4.82162C3.93414 14.4632 3.21522 13.7442 3.21419 12.8571Z" fill="#012E67"/>
</g>
<defs>
<clipPath id="clip0">
<rect width="45" height="45" fill="white"/>
</clipPath>
</defs>
</svg>
